<?xml version="1.0" encoding="utf-8"?>
<!-- Generator: Adobe Illustrator 24.1.2, SVG Export Plug-In . SVG Version: 6.00 Build 0)  -->
<svg version="1.1" id="Layer_1" xmlns="http://www.w3.org/2000/svg" xmlns:xlink="http://www.w3.org/1999/xlink" x="0px" y="0px"
	 viewBox="0 0 480 180" style="enable-background:new 0 0 480 180;" xml:space="preserve">
<style type="text/css">
	.st0{fill-rule:evenodd;clip-rule:evenodd;fill:#FFB848;}
	.st1{fill-rule:evenodd;clip-rule:evenodd;fill:#A3AAB4;}
</style>
<g>
	<path class="st0" d="M198.9,111c-3.7,3.6-8.6,5.6-13.8,5.6c-5.3,0-10.3-2.1-14.1-5.9c-3.7-3.8-5.8-8.9-5.8-14.2
		c0-5.3,2.1-10.4,5.8-14.2c3.7-3.8,8.8-5.9,14.1-5.9c5.3,0,10.3,2.1,14.1,5.9c3.7,3.8,5.8,8.9,5.8,14.2l0,16.7
		c0,1.7-1.4,3.1-3.1,3.1s-3.1-1.4-3.1-3.1V111L198.9,111z M60.1,103.7c-0.5-1.6,0.5-3.3,2.1-3.8c1.6-0.5,3.3,0.5,3.8,2.1
		c0.4,1.4,1.1,2.8,2,3.9c0.9,1.2,2,2.1,3.3,2.9c2,1.2,4.3,1.7,6.6,1.6c2.2-0.1,4.5-0.6,6.4-1.9c0.7-0.5,1.4-1.1,1.9-1.8
		c1-1.3,1.6-3,1.7-4.6c0.1-1.5-0.2-3.1-1-4.4c-0.4-0.6-0.8-1.1-1.4-1.5c-2.4-1.8-5.9-2.8-8.7-3.7c-3.7-1.2-7.9-2.4-10.9-4.9
		c-2.4-1.9-4.1-4.5-4.8-7.5c-0.7-3-0.3-6.1,1.1-8.8c1.3-2.7,3.4-4.7,6-6c2.7-1.4,5.9-2,9-2c3.6,0.1,7.3,1.1,10.2,3.3
		c2.8,2.2,4.5,5.2,4.8,8.8c0.1,1.7-1.1,3.2-2.8,3.3c-1.6,0.1-3.2-1.2-3.3-2.8c-0.2-1.8-1-3.3-2.4-4.4c-1.8-1.4-4.3-2-6.6-2.1
		c-2.1,0-4.2,0.3-6.1,1.3c-1.4,0.7-2.6,1.8-3.3,3.2c-0.7,1.5-1,3.1-0.6,4.8c0.4,1.7,1.4,3.1,2.7,4.1c2.4,1.9,6.1,3,9,3.9
		c3.6,1.1,7.4,2.3,10.5,4.6c1.1,0.8,2.1,1.8,2.8,3c1.6,2.4,2.3,5.3,2.1,8.2c-0.2,2.8-1.2,5.6-2.9,7.8c-0.9,1.3-2.1,2.4-3.4,3.2
		c-2.8,1.9-6.3,2.8-9.7,2.9c-3.4,0.1-6.9-0.7-9.8-2.4c-1.9-1.1-3.6-2.6-5-4.4C61.8,107.9,60.7,105.9,60.1,103.7L60.1,103.7z
		 M220.2,97l0,16.2c0,1.7-1.4,3-3.1,3c-1.7,0-3-1.4-3-3l0-16.2h0v-0.5c0-4.7,1.5-9.4,4.5-13.1c2.9-3.6,7.1-6,11.7-6.7
		c1.7-0.3,3.2,0.9,3.5,2.6c0.3,1.7-0.9,3.2-2.6,3.5c-3.1,0.5-5.9,2-7.9,4.5c-2.1,2.6-3.1,5.9-3.1,9.2L220.2,97L220.2,97L220.2,97z
		 M150.1,67.6c0-1.7,1.4-3.1,3.1-3.1c1.7,0,3.1,1.4,3.1,3.1v45.6c0,1.7-1.4,3.1-3.1,3.1c-1.7,0-3.1-1.4-3.1-3.1V67.6L150.1,67.6z
		 M121.3,76.4c5.3,0,10.3,2.1,14.1,5.9c3.7,3.8,5.8,8.9,5.8,14.2c0,5.3-2.1,10.4-5.8,14.2c-3.7,3.8-8.8,5.9-14.1,5.9
		c-5.3,0-10.3-2.1-14.1-5.9c-3.7-3.8-5.8-8.9-5.8-14.2c0-5.3,2.1-10.4,5.8-14.2C111,78.5,116,76.4,121.3,76.4L121.3,76.4z
		 M194.8,86.6c-2.6-2.6-6.1-4.1-9.7-4.1c-3.7,0-7.1,1.5-9.7,4.1c-2.6,2.6-4,6.2-4,9.9c0,3.7,1.4,7.2,4,9.9c2.6,2.6,6.1,4.1,9.7,4.1
		c3.7,0,7.1-1.5,9.7-4.1c2.6-2.6,4-6.2,4-9.9C198.9,92.8,197.4,89.3,194.8,86.6L194.8,86.6z M131.1,86.6c-2.6-2.6-6.1-4.1-9.7-4.1
		c-3.7,0-7.1,1.5-9.7,4.1c-2.6,2.6-4,6.2-4,9.9c0,3.7,1.4,7.2,4,9.9c2.6,2.6,6.1,4.1,9.7,4.1c3.7,0,7.1-1.5,9.7-4.1
		c2.6-2.6,4-6.2,4-9.9C135.1,92.8,133.7,89.3,131.1,86.6z"/>
	<path class="st1" d="M398.1,111c-3.7,3.6-8.6,5.6-13.8,5.6c-5.3,0-10.3-2.1-14.1-5.9c-3.7-3.8-5.8-8.9-5.8-14.2
		c0-5.3,2.1-10.4,5.8-14.2c3.7-3.8,8.8-5.9,14.1-5.9c5.3,0,10.3,2.1,14.1,5.9c3.7,3.8,5.9,8.9,5.8,14.2l0,0.2l0,0.1v16.4
		c0,1.7-1.4,3.1-3.1,3.1c-1.7,0-3.1-1.4-3.1-3.1V111L398.1,111z M247.5,110.2h20.5c1.7,0,3.1,1.4,3.1,3.1c0,1.7-1.4,3.1-3.1,3.1
		h-23.6c-1.7,0-3.1-1.4-3.1-3.1V67.6c0-1.7,1.4-3.1,3.1-3.1c1.7,0,3.1,1.4,3.1,3.1V110.2L247.5,110.2z M413.9,67.6
		c0-1.7,1.4-3.1,3.1-3.1c1.7,0,3.1,1.4,3.1,3.1v45.6c0,1.7-1.4,3.1-3.1,3.1c-1.7,0-3.1-1.4-3.1-3.1V67.6L413.9,67.6z M356.3,83.2
		c1.1,1.2,1,3.2-0.2,4.3c-1.2,1.1-3.2,1-4.3-0.2c-1.3-1.5-2.9-2.6-4.7-3.4c-1.8-0.8-3.7-1.2-5.7-1.2c-3.7,0-7.2,1.4-9.9,4
		c-2.6,2.6-4.1,6.1-4.1,9.7s1.5,7.1,4.1,9.7c2.6,2.6,6.2,4,9.9,4c2,0,3.9-0.4,5.7-1.2c1.8-0.8,3.4-2,4.7-3.4
		c1.1-1.2,3.1-1.3,4.3-0.2c1.2,1.1,1.3,3.1,0.2,4.3c-1.9,2.1-4.2,3.8-6.8,4.9c-2.6,1.1-5.4,1.7-8.2,1.7c-5.3,0-10.4-2.1-14.2-5.8
		c-3.8-3.7-5.9-8.8-5.9-14.1c0-5.3,2.1-10.3,5.9-14.1c3.8-3.7,8.9-5.8,14.2-5.8c2.8,0,5.6,0.6,8.2,1.7
		C352.1,79.5,354.4,81.1,356.3,83.2L356.3,83.2z M294.7,76.4c5.3,0,10.3,2.1,14.1,5.9c3.7,3.8,5.8,8.9,5.8,14.2
		c0,5.3-2.1,10.4-5.8,14.2c-3.7,3.8-8.8,5.9-14.1,5.9c-5.3,0-10.3-2.1-14.1-5.9c-3.7-3.8-5.8-8.9-5.8-14.2c0-5.3,2.1-10.4,5.8-14.2
		C284.4,78.5,289.4,76.4,294.7,76.4L294.7,76.4z M394.1,86.6c-2.6-2.6-6.1-4.1-9.7-4.1c-3.7,0-7.1,1.5-9.7,4.1c-2.6,2.6-4,6.2-4,9.9
		c0,3.7,1.4,7.2,4,9.9c2.6,2.6,6.1,4.1,9.7,4.1c3.7,0,7.1-1.5,9.7-4.1c2.6-2.6,4-6.2,4-9.9C398.1,92.8,396.7,89.3,394.1,86.6
		L394.1,86.6z M304.4,86.6c-2.6-2.6-6.1-4.1-9.7-4.1c-3.7,0-7.1,1.5-9.7,4.1c-2.6,2.6-4,6.2-4,9.9c0,3.7,1.4,7.2,4,9.9
		c2.6,2.6,6.1,4.1,9.7,4.1c3.7,0,7.1-1.5,9.7-4.1c2.6-2.6,4-6.2,4-9.9C308.5,92.8,307,89.3,304.4,86.6z"/>
</g>
</svg>
